<?xml version="1.0" standalone="no"?>
<!DOCTYPE svg PUBLIC "-//W3C//DTD SVG 20010904//EN"
 "http://www.w3.org/TR/2001/REC-SVG-20010904/DTD/svg10.dtd">
<svg version="1.0" xmlns="http://www.w3.org/2000/svg"
 width="100" height="40" viewBox="0 0 250 70"
 preserveAspectRatio="xMidYMid meet">

<g transform="translate(0.000000,84.000000) scale(0.100000,-0.100000)"
fill="#283239" stroke="none">
<path d="M1283 765 c-64 -32 -87 -75 -81 -147 6 -58 31 -96 79 -121 46 -24
125 -19 168 12 l32 23 -22 24 c-16 17 -26 21 -35 13 -27 -22 -76 -29 -105 -14
-51 27 -58 116 -11 151 24 18 83 17 110 -2 21 -15 24 -14 42 8 19 23 19 23 -1
40 -20 17 -80 38 -110 38 -8 0 -38 -11 -66 -25z"/>
<path d="M1918 782 c-10 -2 -18 -7 -18 -10 0 -4 25 -70 55 -147 l54 -140 40
-3 c37 -3 42 0 51 25 6 15 31 81 56 145 25 64 43 121 40 126 -3 5 -20 7 -38 3
-30 -6 -33 -12 -66 -110 -19 -56 -38 -99 -42 -94 -4 4 -22 52 -41 105 -34 99
-45 110 -91 100z"/>
<path d="M280 630 l0 -150 40 0 40 0 0 45 c0 43 1 45 30 45 26 0 33 -6 52 -45
21 -43 24 -45 65 -45 l43 0 -32 51 c-27 45 -29 53 -16 63 47 35 52 114 9 157
-29 28 -32 29 -130 29 l-101 0 0 -150z m181 79 c13 -20 11 -55 -3 -67 -7 -5
-32 -12 -55 -14 l-43 -4 0 55 0 54 46 -6 c26 -2 50 -11 55 -18z"/>
<path d="M600 630 l0 -150 120 0 120 0 0 30 0 30 -85 0 -85 0 0 30 0 29 73 3
c70 3 72 4 75 31 l3 27 -76 0 -76 0 3 33 3 32 78 3 c74 3 77 4 77 27 l0 25
-115 0 -115 0 0 -150z"/>
<path d="M925 639 c-33 -78 -61 -146 -63 -150 -2 -5 14 -9 35 -9 34 0 40 4 50
30 11 29 13 30 81 30 70 0 70 0 77 -30 6 -27 10 -30 46 -30 48 0 50 -14 -25
165 l-55 130 -43 3 -43 3 -60 -142z m126 6 c9 -24 14 -46 11 -49 -7 -8 -67 -8
-74 0 -4 3 3 28 14 55 12 27 23 47 27 44 3 -3 13 -26 22 -50z"/>
<path d="M1490 750 c0 -29 2 -30 45 -30 l45 0 0 -120 0 -120 40 0 40 0 0 119
0 120 43 3 c38 3 42 6 45 31 l3 27 -130 0 -131 0 0 -30z"/>
<path d="M1785 768 c-2 -7 -3 -74 -2 -148 l2 -135 38 -3 37 -3 0 150 0 151
-35 0 c-20 0 -38 -6 -40 -12z"/>
<path d="M2240 630 l0 -150 120 0 120 0 0 30 0 30 -80 0 -80 0 0 30 0 30 70 0
70 0 0 30 0 30 -70 0 -70 0 0 35 0 35 80 0 c79 0 80 0 80 25 l0 25 -120 0
-120 0 0 -150z"/>
<path d="M1941 253 c-30 -124 -43 -159 -52 -138 -4 11 -8 47 -8 80 -1 55 -13
97 -24 85 -11 -11 -77 -193 -72 -198 7 -7 8 -6 40 78 l30 75 6 -55 c5 -51 23
-100 35 -100 11 0 43 87 55 148 14 74 7 94 -10 25z"/>
<path d="M2445 271 c-73 -45 -82 -90 -25 -124 38 -23 34 -42 -8 -42 -36 0 -42
-10 -12 -20 29 -9 60 3 60 24 0 10 -16 31 -35 45 -19 15 -35 32 -35 38 0 18
70 78 91 78 16 0 19 -5 14 -20 -7 -23 10 -28 19 -5 8 22 -4 45 -23 45 -9 0
-29 -8 -46 -19z"/>
<path d="M2010 250 c-36 -38 -60 -131 -40 -155 17 -21 35 -19 63 8 66 61 78
177 19 177 -8 0 -27 -14 -42 -30z m60 -33 c0 -68 -75 -152 -93 -104 -7 19 22
99 46 125 32 35 47 28 47 -21z"/>
<path d="M2308 273 c-21 -3 -35 -17 -58 -57 -46 -81 -38 -126 23 -126 31 0 67
16 67 29 0 5 -19 2 -42 -6 -34 -11 -44 -12 -54 -1 -19 19 -6 58 20 58 11 1 35
7 51 15 29 14 29 14 -20 8 l-50 -6 20 24 c31 38 47 49 71 49 13 0 26 5 29 10
6 10 -6 11 -57 3z"/>
<path d="M2124 259 c-5 -9 1 -10 20 -5 14 3 26 5 26 3 0 -2 -11 -37 -25 -77
-14 -40 -25 -78 -25 -83 0 -24 17 10 41 81 24 71 28 77 53 75 14 -1 26 2 26 8
0 13 -107 11 -116 -2z"/>
<path d="M290 190 l0 -40 696 0 695 0 -3 38 -3 37 -692 3 -693 2 0 -40z"/>
</g>
</svg>
