<?xml version="1.0" standalone="no"?>
<!DOCTYPE svg PUBLIC "-//W3C//DTD SVG 20010904//EN"
 "http://www.w3.org/TR/2001/REC-SVG-20010904/DTD/svg10.dtd">
<svg version="1.0" xmlns="http://www.w3.org/2000/svg"
 width="327.000000pt" height="94.000000pt" viewBox="0 0 327.000000 94.000000"
 preserveAspectRatio="xMidYMid meet">

<g transform="translate(0.000000,94.000000) scale(0.100000,-0.100000)"
 stroke="none">
<path d="M180 620 l0 -180 50 0 50 0 0 50 c0 47 2 50 25 50 19 0 33 -12 57
-50 33 -49 33 -50 86 -50 58 0 58 -4 10 68 l-30 43 25 20 c36 28 52 82 38 128
-22 75 -79 101 -223 101 l-88 0 0 -180z m200 80 c11 -11 20 -27 20 -35 0 -29
-38 -55 -80 -55 l-40 0 0 55 0 55 40 0 c27 0 47 -7 60 -20z"/>
<path d="M600 620 l0 -180 140 0 140 0 0 40 0 40 -90 0 -90 0 0 30 0 29 78 3
77 3 3 38 3 37 -80 0 -81 0 0 30 0 30 90 0 90 0 0 40 0 40 -140 0 -140 0 0
-180z"/>
<path d="M1026 628 c-42 -95 -76 -176 -76 -180 0 -5 22 -8 49 -8 48 0 50 1 61
35 l12 35 78 0 78 0 12 -35 c11 -34 13 -35 65 -35 l54 0 -46 103 c-25 56 -60
136 -78 177 l-34 75 -49 3 -49 3 -77 -173z m147 15 c9 -27 17 -51 17 -55 0 -5
-18 -8 -40 -8 -22 0 -40 3 -40 8 0 14 34 102 40 102 3 0 14 -21 23 -47z"/>
<path d="M1507 779 c-106 -56 -125 -206 -37 -290 69 -66 183 -73 262 -18 35
26 35 33 -2 59 -29 20 -32 21 -55 6 -28 -18 -87 -21 -117 -5 -57 30 -56 144 2
174 40 21 82 19 113 -5 l25 -20 31 26 c17 14 31 30 31 34 0 5 -20 21 -43 35
-56 32 -152 35 -210 4z"/>
<path d="M1820 760 l0 -40 55 0 55 0 0 -140 0 -140 50 0 50 0 0 140 0 140 55
0 55 0 0 40 0 40 -160 0 -160 0 0 -40z"/>
<path d="M2227 793 c-4 -3 -7 -84 -7 -180 l0 -173 50 0 50 0 0 180 0 180 -43
0 c-24 0 -47 -3 -50 -7z"/>
<path d="M2403 788 c3 -7 38 -89 77 -181 l73 -168 49 3 50 3 74 173 c41 96 74
176 74 178 0 2 -22 4 -48 4 l-48 0 -48 -115 c-27 -63 -50 -115 -51 -115 -2 0
-25 52 -51 115 l-48 115 -54 0 c-39 0 -53 -3 -49 -12z"/>
<path d="M2880 620 l0 -180 140 0 140 0 0 40 0 40 -90 0 -90 0 0 30 0 30 75 0
75 0 0 40 0 40 -75 0 -75 0 0 30 0 30 91 0 90 0 -3 38 -3 37 -137 3 -138 3 0
-181z"/>
<path d="M2402 240 c1 -51 1 -52 7 -15 l6 39 32 -39 32 -40 -1 55 c-1 44 -2
47 -5 17 l-4 -39 -34 39 -34 38 1 -55z"/>
<path d="M2562 278 c-22 -22 -14 -67 13 -80 37 -17 75 3 75 40 0 35 -16 52
-50 52 -14 0 -31 -5 -38 -12z m68 -13 c26 -32 -13 -81 -47 -59 -23 14 -28 41
-13 59 16 19 44 19 60 0z"/>
<path d="M2717 283 c18 -4 23 -12 26 -51 l3 -47 2 47 c2 40 5 47 25 51 12 2 0
4 -28 4 -27 0 -40 -2 -28 -4z"/>
<path d="M2840 240 l0 -50 38 2 c36 1 36 1 5 5 -43 6 -47 40 -5 46 l27 4 -27
2 c-40 2 -36 29 5 34 31 4 31 4 -5 5 l-38 2 0 -50z"/>
<path d="M2977 283 c-16 -15 -5 -35 23 -45 37 -12 34 -33 -3 -33 -15 1 -23 -3
-18 -8 16 -16 56 -3 59 19 2 17 -5 24 -29 33 -35 12 -31 26 11 34 22 4 21 4
-6 6 -17 0 -34 -2 -37 -6z"/>
<path d="M140 225 l0 -55 1055 0 1055 0 0 55 0 55 -1055 0 -1055 0 0 -55z"/>
</g>
</svg>
